<svg xmlns="http://www.w3.org/2000/svg" enable-background="new 0 0 64 64" viewBox="0 0 64 64" id="bird"><path d="M62.08,26.98l-5.58-1.42c-2.28-4.02-5.48-3.58-7.27-2.89c-1.37,0.52-2.58,1.52-3.48,2.88c-1.77,2.66-3.21,3.47-3.82,3.71
		c-0.34-0.3-0.92-0.77-1.73-1.32c1.31-8.49-5.91-15.42-7.4-16.75c-0.78-0.69-1.51-1.51-2.15-2.42c-2.25-3.21-5.17-8.26-5.2-8.31
		c-0.19-0.33-0.57-0.51-0.95-0.46c-0.38,0.06-0.69,0.34-0.77,0.72c-0.06,0.25-1.05,4.81,0.5,9.52c-0.58-0.53-1.01-0.96-1.16-1.19
		c-0.07-0.33-0.3-0.63-0.63-0.73c-0.42-0.13-0.88,0.05-1.1,0.43c-0.21,0.36-1.07,5.09,1.44,9.1c-0.83-0.24-1.56-0.53-1.89-0.83
		c-0.1-0.18-0.15-0.28-0.16-0.3c-0.2-0.41-0.66-0.62-1.1-0.49c-0.44,0.13-0.72,0.55-0.67,1c0.04,0.32,0.17,0.62,0.4,0.89
		c0.41,0.74,1.19,2.01,2.24,3.2c-0.03-0.01-0.07-0.01-0.1-0.02c-0.81-0.13-1.53-0.3-2.19-0.52c-2.97-1.01-10.5-4-16.18-10.02
		c-0.23-0.24-0.56-0.34-0.89-0.27c-0.32,0.07-0.58,0.31-0.68,0.63c-0.02,0.07-1.84,6.1,2.8,11.66l-1.67-0.54
		c-0.28-0.09-0.59-0.04-0.83,0.13c-0.24,0.17-0.39,0.45-0.39,0.74c-0.09,4.94,3.99,8.16,7,9.87c-1.43,0.18-2.32,0.34-2.38,0.35
		c-0.25,0.04-0.46,0.18-0.6,0.39c-0.14,0.21-0.2,0.46-0.15,0.7c0.38,2.01,1.32,3.47,2.79,4.34c1.14,0.68,2.43,0.88,3.57,0.88
		c-0.56,0.5-0.99,0.85-1,0.86c-0.24,0.2-0.37,0.52-0.33,0.83c0.04,0.32,0.24,0.59,0.52,0.73c4,1.93,8.06,1.77,11.07,1.16
		c-2.83,2.08-6.76,4.4-9.94,4.04c-0.72-0.08-1.39,0-2.05,0.09l-0.17,0.02c-1.29,0.16-2.34,0.31-3.1,0.43
		c-1.53,0.26-2.74,1.45-2.94,2.91c-0.12,0.85,0.12,1.59,0.67,2.14c0.91,0.91,2.58,1.23,5.19,0.99c-0.91,1.14-1.27,2.22-1.4,2.7
		c-0.17,0.65-0.01,1.34,0.42,1.82c0.5,0.57,1.19,0.87,1.97,0.89c1.28,0.01,2.77-0.81,3.98-1.7l-0.79,2.74
		c-0.25,0.88-0.19,1.76,0.19,2.48c0.42,0.8,1.1,1.23,1.93,1.23c0.01,0,0.01,0,0.02,0c1.7-0.02,3.6-1.97,4.51-3.81
		c0.13-0.26,0.28-0.51,0.43-0.76c0.3-0.5,0.6-1.02,0.81-1.63c1.59-4.79,4.38-7.19,5.2-7.81c0.23-0.17,0.51-0.24,0.78-0.18
		c3.42,0.78,15,2.63,20.47-6.22c0.4-0.51,3.27-4.3,2.84-8.5c0.69-0.11,1.66-0.36,2.69-0.93c1.06-0.58,1.9-1.46,2.51-2.49l6.06-2.95
		c0.35-0.17,0.56-0.55,0.52-0.93C62.74,27.4,62.46,27.08,62.08,26.98z M25.12,20.27c0.4,0.06,0.81-0.15,0.98-0.53
		c0.18-0.37,0.08-0.82-0.22-1.09c-2.43-2.18-2.94-5.14-2.97-7.09c0.82,0.77,2.03,1.8,3.83,3.22c0.37,0.29,0.91,0.26,1.24-0.07
		c0.33-0.34,0.36-0.87,0.07-1.24c-2.5-3.13-2.86-7.08-2.77-9.65c1.07,1.77,2.55,4.17,3.86,6.03c0.73,1.03,1.55,1.96,2.44,2.74
		c0.81,0.72,7.47,6.9,6.89,14.26c-2.71-1.58-6.96-3.48-13.1-4.81c-0.99-0.5-1.89-1.37-2.61-2.25
		C23.81,20.07,24.78,20.22,25.12,20.27z M52.79,32.54c-1.03,0.57-2,0.73-2.48,0.77c-0.37,0.03-0.71,0.22-0.94,0.51
		c-0.23,0.3-0.33,0.69-0.27,1.07c0.62,3.78-2.39,7.55-2.42,7.58c-0.03,0.03-0.05,0.07-0.07,0.1c-4.81,7.84-15.37,6.13-18.5,5.42
		c-0.81-0.18-1.66,0-2.33,0.51c-1.19,0.9-4.13,3.55-5.84,8.71c-0.14,0.42-0.38,0.83-0.64,1.26c-0.17,0.29-0.34,0.58-0.49,0.88
		c-0.77,1.53-2.19,2.77-2.86,2.78c-0.07,0-0.15,0-0.28-0.23c-0.15-0.29-0.17-0.68-0.05-1.09l1.68-5.83
		c0.12-0.41-0.06-0.86-0.43-1.07c-0.14-0.08-0.3-0.12-0.46-0.12c-0.25,0-0.5,0.1-0.68,0.29c-1.21,1.28-3.63,3.31-5.04,3.31
		c-0.01,0-0.01,0-0.02,0c-0.26,0-0.44-0.08-0.6-0.26c-0.01-0.01-0.02-0.06-0.01-0.11c0.17-0.67,0.99-2.95,4.12-4.17
		c0.46-0.18,0.71-0.7,0.56-1.17c-0.18-0.54-0.25-0.74-1.23-0.55l-0.01-0.02c-0.03,0.01-0.06,0.02-0.08,0.03
		c-0.57,0.12-1.43,0.35-2.75,0.72c-3.71,0.52-4.68-0.11-4.89-0.32c-0.09-0.09-0.19-0.24-0.14-0.56c0.09-0.66,0.67-1.2,1.4-1.33
		c0.73-0.12,1.77-0.27,3.02-0.42l0.18-0.02c0.57-0.07,1.11-0.14,1.6-0.08c6.49,0.73,14.81-7.3,15.16-7.64
		c0.33-0.32,0.38-0.84,0.11-1.21c-0.27-0.37-0.77-0.5-1.18-0.29c-0.07,0.03-6.45,3.22-12.84,0.97c0.67-0.59,1.5-1.35,2.1-2
		c0.29-0.31,0.33-0.78,0.1-1.14c-0.23-0.36-0.67-0.51-1.08-0.39c-0.03,0.01-3.04,0.96-5.1-0.26c-0.77-0.46-1.32-1.16-1.66-2.14
		c0.99-0.15,2.63-0.36,4.58-0.52c0.44-0.04,0.79-0.37,0.85-0.81c0.06-0.44-0.2-0.85-0.62-1c-0.08-0.03-7.77-2.79-8.78-8.23
		l4.43,1.43c0.44,0.14,0.92-0.06,1.12-0.47C9.22,25,9.1,24.5,8.72,24.24c-5.37-3.81-5.84-8.46-5.64-10.9
		c5.77,5.47,12.77,8.24,15.65,9.22c0.76,0.26,1.58,0.45,2.5,0.6C35.37,25.35,40.95,30.9,41,30.95c0.19,0.19,0.46,0.3,0.72,0.28
		c0.26-0.01,2.67-0.26,5.59-4.64c0.69-1.04,1.59-1.79,2.6-2.18c2.35-0.9,4.12,0.05,5.42,2.94C55.58,29.47,54.56,31.55,52.79,32.54z
		 M57.12,29.15c0.08-0.48,0.09-0.98,0.07-1.49l1.96,0.5L57.12,29.15z"></path><path d="M51.86,26.13c-0.52,0-0.94,0.42-0.94,0.94c0,0.52,0.42,0.94,0.94,0.94s0.94-0.42,0.94-0.94
		C52.8,26.55,52.37,26.13,51.86,26.13z"></path></svg>