<svg xmlns="http://www.w3.org/2000/svg" data-name="Layer 1" viewBox="0 0 512 512" id="flower"><path d="M435 264.9a67.48 67.48 0 0 0 15.36-33.54 52.74 52.74 0 0 1 36-42.32l8.31-2.7a7.5 7.5 0 0 0-4.67-14.26l-8.31 2.69a52.73 52.73 0 0 1-54-13.07 67.43 67.43 0 0 0-32.14-18.11c14.28-31 19.33-63.42 13.84-90.14a7.49 7.49 0 0 0-8.18-5.94c-27.11 3-56.34 17.84-81.45 41a67.52 67.52 0 0 0-27.15-25 52.72 52.72 0 0 1-29.11-47.28V7.5a7.5 7.5 0 0 0-15 0v8.73a52.72 52.72 0 0 1-29.13 47.32 67.52 67.52 0 0 0-27.15 25c-25.11-23.17-54.34-38-81.45-41a7.49 7.49 0 0 0-8.18 5.94c-5.49 26.72-.44 59.1 13.84 90.14a67.43 67.43 0 0 0-32.14 18.07 52.74 52.74 0 0 1-54 13.07L22 172.08a7.5 7.5 0 1 0-4.64 14.26l8.31 2.7a52.74 52.74 0 0 1 36 42.32A67.48 67.48 0 0 0 77 264.9c-29.8 16.72-52.91 40-64.18 64.79a7.5 7.5 0 0 0 3.18 9.62c18.52 10.52 42.3 16 68 16a189.59 189.59 0 0 0 22-1.31 67.54 67.54 0 0 0 7.29 36.17 52.72 52.72 0 0 1-4.25 55.4l-5.13 7.06a7.5 7.5 0 1 0 12.09 8.82l5.14-7.07a52.73 52.73 0 0 1 51.37-21.16 67.49 67.49 0 0 0 36.64-4.22c6.7 33.51 21.65 62.67 41.79 81.06a7.51 7.51 0 0 0 10.12 0c20.14-18.39 35.09-47.55 41.79-81.06a67.49 67.49 0 0 0 36.64 4.24 52.73 52.73 0 0 1 51.37 21.16l5.14 7.07a7.5 7.5 0 1 0 12.13-8.82l-5.13-7.08a52.72 52.72 0 0 1-4.25-55.4A67.54 67.54 0 0 0 406 354a187.28 187.28 0 0 0 22 1.31c25.69 0 49.48-5.48 68-16a7.5 7.5 0 0 0 3.13-9.62c-11.23-24.84-34.34-48.07-64.13-64.79Zm-17.93-92.64a67.8 67.8 0 0 0 37.33 19.28 67.8 67.8 0 0 0-18.87 37.54 53.13 53.13 0 0 1-60.1 44.35l-69.18-10.19a50.5 50.5 0 0 0-13.87-42.61l50-48.92a53.14 53.14 0 0 1 74.68.55Zm-94.14-17.78a67.79 67.79 0 0 0 3.54-51.63C347.86 82 372.61 68 395.86 63.5c2.89 23.51-2.8 51.38-16 78.16a67.77 67.77 0 0 0-48 19.33l-23.66 23.17Zm-96.8-77.54A67.71 67.71 0 0 0 256 47.4a67.71 67.71 0 0 0 29.87 29.54 53.14 53.14 0 0 1 23.61 70.87l-31.07 62.65a50.63 50.63 0 0 0-44.82 0l-31.07-62.65a53.14 53.14 0 0 1 23.61-70.87ZM291.77 256A35.77 35.77 0 1 1 256 220.23 35.82 35.82 0 0 1 291.77 256ZM116.14 63.49c23.25 4.53 48 18.54 69.4 39.36a67.79 67.79 0 0 0 3.54 51.63l14.72 29.68L180.12 161a67.77 67.77 0 0 0-48-19.33c-13.18-26.79-18.87-54.67-15.98-78.18ZM76.48 229.08a67.8 67.8 0 0 0-18.87-37.54 67.8 67.8 0 0 0 37.33-19.28 53.14 53.14 0 0 1 74.69-.55l50 48.92a50.5 50.5 0 0 0-13.87 42.61l-69.18 10.19a53.13 53.13 0 0 1-60.1-44.35ZM109 338.47c-29.55 4.27-57.81 1.07-79.28-8.94 11.49-20.72 32.46-39.93 58.88-53.85a67.58 67.58 0 0 0 50.19 12.59l32.77-4.83-29.37 15.36A67.79 67.79 0 0 0 109 338.47Zm102 72.82-.11.07a52.75 52.75 0 0 1-36 7.06 67.77 67.77 0 0 0-41.53 6.34 67.82 67.82 0 0 0-6.8-41.46 53.14 53.14 0 0 1 22.55-71.21l62-32.42A50.9 50.9 0 0 0 247.36 306l-11.69 69A52.86 52.86 0 0 1 211 411.29ZM256 494c-16.16-17.33-27.94-43.21-33-72.64a67.75 67.75 0 0 0 27.47-43.84l5.53-32.71 5.54 32.66A67.76 67.76 0 0 0 289 421.31c-5.06 29.43-16.84 55.31-33 72.69Zm129.41-110.7a67.82 67.82 0 0 0-6.8 41.46 67.77 67.77 0 0 0-41.53-6.34A53.13 53.13 0 0 1 276.33 375l-11.69-69a50.9 50.9 0 0 0 36.25-26.35l62 32.42a53.14 53.14 0 0 1 22.52 71.23ZM403 338.47a67.79 67.79 0 0 0-33.21-39.67l-29.35-15.36 32.77 4.83a67.55 67.55 0 0 0 50.18-12.59c26.43 13.91 47.4 33.13 58.89 53.85-21.45 10.01-49.71 13.21-79.28 8.94Z"></path></svg>